<mxfile host="app.diagrams.net" modified="2024-04-28T15:18:13.054Z" agent="Mozilla/5.0 (Macintosh; Intel Mac OS X 10.15; rv:125.0) Gecko/20100101 Firefox/125.0" etag="u8_3iIxtJPI2DwC4Jg96" version="24.3.1" type="device">
  <diagram name="Seite-1" id="ospozs8esC01svjr561_">
    <mxGraphModel dx="1434" dy="942" grid="1" gridSize="10" guides="1" tooltips="1" connect="1" arrows="1" fold="1" page="0" pageScale="1" pageWidth="827" pageHeight="1169" math="0" shadow="0">
      <root>
        <mxCell id="0" />
        <mxCell id="1" parent="0" />
        <mxCell id="1RoOa8lt8V1fV5KQ1_AD-64" style="edgeStyle=none;rounded=0;orthogonalLoop=1;jettySize=auto;html=1;entryX=0;entryY=0.25;entryDx=0;entryDy=0;exitX=1.005;exitY=0.449;exitDx=0;exitDy=0;exitPerimeter=0;" parent="1" source="1RoOa8lt8V1fV5KQ1_AD-2" target="196cSCyAFtmHMFl8ig_F-1" edge="1">
          <mxGeometry relative="1" as="geometry">
            <mxPoint x="550" y="640" as="sourcePoint" />
            <mxPoint x="680.2" y="650" as="targetPoint" />
          </mxGeometry>
        </mxCell>
        <mxCell id="1RoOa8lt8V1fV5KQ1_AD-65" value="An / Aus" style="edgeLabel;html=1;align=center;verticalAlign=middle;resizable=0;points=[];" parent="1RoOa8lt8V1fV5KQ1_AD-64" vertex="1" connectable="0">
          <mxGeometry x="0.0177" y="1" relative="1" as="geometry">
            <mxPoint x="8" y="-1" as="offset" />
          </mxGeometry>
        </mxCell>
        <mxCell id="1RoOa8lt8V1fV5KQ1_AD-2" value="" style="rounded=0;whiteSpace=wrap;html=1;labelPosition=center;verticalLabelPosition=middle;align=center;verticalAlign=middle;horizontal=1;" parent="1" vertex="1">
          <mxGeometry x="340" y="400" width="200.25" height="400" as="geometry" />
        </mxCell>
        <mxCell id="1RoOa8lt8V1fV5KQ1_AD-1" value="&lt;div&gt;Microcontroller&lt;/div&gt;&lt;div&gt;mind. 2 Kerne&lt;br&gt;&lt;/div&gt;" style="rounded=0;whiteSpace=wrap;html=1;" parent="1" vertex="1">
          <mxGeometry x="380.12" y="570" width="120" height="60" as="geometry" />
        </mxCell>
        <mxCell id="1RoOa8lt8V1fV5KQ1_AD-3" value="USB" style="rounded=0;whiteSpace=wrap;html=1;" parent="1" vertex="1">
          <mxGeometry x="387.12" y="750" width="106" height="40" as="geometry" />
        </mxCell>
        <mxCell id="1RoOa8lt8V1fV5KQ1_AD-4" value="Wi-Fi" style="rounded=0;whiteSpace=wrap;html=1;" parent="1" vertex="1">
          <mxGeometry x="394.87" y="410" width="90.5" height="40" as="geometry" />
        </mxCell>
        <mxCell id="1RoOa8lt8V1fV5KQ1_AD-29" value="&lt;div&gt;Wasserpumpe&lt;/div&gt;&lt;div&gt;12V&amp;nbsp; max. 6A&lt;br&gt;&lt;/div&gt;" style="rounded=0;whiteSpace=wrap;html=1;" parent="1" vertex="1">
          <mxGeometry x="810" y="560" width="140" height="80" as="geometry" />
        </mxCell>
        <mxCell id="1RoOa8lt8V1fV5KQ1_AD-39" style="edgeStyle=none;rounded=0;orthogonalLoop=1;jettySize=auto;html=1;exitX=0.5;exitY=1;exitDx=0;exitDy=0;entryX=0.5;entryY=0;entryDx=0;entryDy=0;" parent="1" source="1RoOa8lt8V1fV5KQ1_AD-36" target="1RoOa8lt8V1fV5KQ1_AD-37" edge="1">
          <mxGeometry relative="1" as="geometry" />
        </mxCell>
        <mxCell id="1RoOa8lt8V1fV5KQ1_AD-40" value="Text" style="edgeLabel;html=1;align=center;verticalAlign=middle;resizable=0;points=[];" parent="1RoOa8lt8V1fV5KQ1_AD-39" vertex="1" connectable="0">
          <mxGeometry x="-0.2571" relative="1" as="geometry">
            <mxPoint as="offset" />
          </mxGeometry>
        </mxCell>
        <mxCell id="1RoOa8lt8V1fV5KQ1_AD-41" value="max. 20V" style="edgeLabel;html=1;align=center;verticalAlign=middle;resizable=0;points=[];" parent="1RoOa8lt8V1fV5KQ1_AD-39" vertex="1" connectable="0">
          <mxGeometry x="-0.2" relative="1" as="geometry">
            <mxPoint as="offset" />
          </mxGeometry>
        </mxCell>
        <mxCell id="1RoOa8lt8V1fV5KQ1_AD-36" value="20W Solarmodul" style="rounded=0;whiteSpace=wrap;html=1;" parent="1" vertex="1">
          <mxGeometry x="80" y="440" width="140" height="80" as="geometry" />
        </mxCell>
        <mxCell id="1RoOa8lt8V1fV5KQ1_AD-42" style="edgeStyle=none;rounded=0;orthogonalLoop=1;jettySize=auto;html=1;entryX=0.5;entryY=0;entryDx=0;entryDy=0;" parent="1" edge="1">
          <mxGeometry relative="1" as="geometry">
            <mxPoint x="144.71" y="640" as="sourcePoint" />
            <mxPoint x="144.71" y="680" as="targetPoint" />
          </mxGeometry>
        </mxCell>
        <mxCell id="1RoOa8lt8V1fV5KQ1_AD-50" style="edgeStyle=orthogonalEdgeStyle;rounded=0;orthogonalLoop=1;jettySize=auto;html=1;elbow=vertical;endArrow=none;endFill=0;exitX=1;exitY=0.75;exitDx=0;exitDy=0;" parent="1" source="1RoOa8lt8V1fV5KQ1_AD-37" edge="1">
          <mxGeometry relative="1" as="geometry">
            <mxPoint x="210" y="620" as="sourcePoint" />
            <mxPoint x="590" y="780" as="targetPoint" />
            <Array as="points">
              <mxPoint x="300" y="620" />
              <mxPoint x="300" y="840" />
              <mxPoint x="590" y="840" />
            </Array>
          </mxGeometry>
        </mxCell>
        <mxCell id="1RoOa8lt8V1fV5KQ1_AD-37" value="Solar-Laderegler" style="rounded=0;whiteSpace=wrap;html=1;" parent="1" vertex="1">
          <mxGeometry x="80" y="560" width="140" height="80" as="geometry" />
        </mxCell>
        <mxCell id="1RoOa8lt8V1fV5KQ1_AD-38" value="&lt;div&gt;12V&amp;nbsp; 7.2Ah&amp;nbsp;&lt;/div&gt;&lt;div&gt;Blei-Gel Akku&lt;/div&gt;" style="rounded=0;whiteSpace=wrap;html=1;" parent="1" vertex="1">
          <mxGeometry x="80" y="680" width="140" height="80" as="geometry" />
        </mxCell>
        <mxCell id="1RoOa8lt8V1fV5KQ1_AD-43" style="edgeStyle=none;rounded=0;orthogonalLoop=1;jettySize=auto;html=1;entryX=0;entryY=0.4;entryDx=0;entryDy=0;entryPerimeter=0;exitX=1;exitY=0.375;exitDx=0;exitDy=0;exitPerimeter=0;" parent="1" source="1RoOa8lt8V1fV5KQ1_AD-37" edge="1">
          <mxGeometry relative="1" as="geometry">
            <mxPoint x="210" y="590" as="sourcePoint" />
            <mxPoint x="340" y="590" as="targetPoint" />
          </mxGeometry>
        </mxCell>
        <mxCell id="1RoOa8lt8V1fV5KQ1_AD-48" value="5V USB" style="edgeLabel;html=1;align=center;verticalAlign=middle;resizable=0;points=[];" parent="1RoOa8lt8V1fV5KQ1_AD-43" vertex="1" connectable="0">
          <mxGeometry relative="1" as="geometry">
            <mxPoint y="-1" as="offset" />
          </mxGeometry>
        </mxCell>
        <mxCell id="1RoOa8lt8V1fV5KQ1_AD-44" style="edgeStyle=none;rounded=0;orthogonalLoop=1;jettySize=auto;html=1;entryX=0.999;entryY=0.098;entryDx=0;entryDy=0;entryPerimeter=0;" parent="1" source="1RoOa8lt8V1fV5KQ1_AD-28" target="1RoOa8lt8V1fV5KQ1_AD-2" edge="1">
          <mxGeometry relative="1" as="geometry">
            <mxPoint x="560" y="440" as="targetPoint" />
          </mxGeometry>
        </mxCell>
        <mxCell id="1RoOa8lt8V1fV5KQ1_AD-46" value="&lt;div&gt;Analoge Messung /&lt;/div&gt;&lt;div&gt;Digitale komm.&lt;br&gt;&lt;/div&gt;" style="edgeLabel;html=1;align=center;verticalAlign=middle;resizable=0;points=[];" parent="1RoOa8lt8V1fV5KQ1_AD-44" vertex="1" connectable="0">
          <mxGeometry relative="1" as="geometry">
            <mxPoint y="-2" as="offset" />
          </mxGeometry>
        </mxCell>
        <mxCell id="1RoOa8lt8V1fV5KQ1_AD-49" style="edgeStyle=none;rounded=0;orthogonalLoop=1;jettySize=auto;html=1;entryX=0.5;entryY=0;entryDx=0;entryDy=0;" parent="1" edge="1">
          <mxGeometry relative="1" as="geometry">
            <mxPoint x="154.71" y="680" as="sourcePoint" />
            <mxPoint x="154.71" y="640" as="targetPoint" />
          </mxGeometry>
        </mxCell>
        <mxCell id="1RoOa8lt8V1fV5KQ1_AD-55" value="&lt;div&gt;App /&amp;nbsp;&lt;/div&gt;&lt;div&gt;Web Interface&lt;/div&gt;" style="rounded=0;whiteSpace=wrap;html=1;" parent="1" vertex="1">
          <mxGeometry x="370.12" y="240" width="140" height="80" as="geometry" />
        </mxCell>
        <mxCell id="1RoOa8lt8V1fV5KQ1_AD-60" value="" style="endArrow=classic;startArrow=classic;html=1;rounded=0;entryX=0.5;entryY=1;entryDx=0;entryDy=0;exitX=0.5;exitY=0;exitDx=0;exitDy=0;" parent="1" source="1RoOa8lt8V1fV5KQ1_AD-4" target="1RoOa8lt8V1fV5KQ1_AD-55" edge="1">
          <mxGeometry width="50" height="50" relative="1" as="geometry">
            <mxPoint x="430" y="380" as="sourcePoint" />
            <mxPoint x="480" y="330" as="targetPoint" />
          </mxGeometry>
        </mxCell>
        <mxCell id="1RoOa8lt8V1fV5KQ1_AD-61" value="&lt;div&gt;Werte /&amp;nbsp;&lt;/div&gt;&lt;div&gt;Einstellungen / &lt;br&gt;&lt;/div&gt;&lt;div&gt;Benachrichtigungen&lt;br&gt;&lt;/div&gt;" style="edgeLabel;html=1;align=center;verticalAlign=middle;resizable=0;points=[];" parent="1RoOa8lt8V1fV5KQ1_AD-60" vertex="1" connectable="0">
          <mxGeometry x="0.0014" relative="1" as="geometry">
            <mxPoint as="offset" />
          </mxGeometry>
        </mxCell>
        <mxCell id="1RoOa8lt8V1fV5KQ1_AD-67" style="edgeStyle=orthogonalEdgeStyle;rounded=0;orthogonalLoop=1;jettySize=auto;html=1;startArrow=classic;startFill=1;endArrow=none;endFill=0;strokeColor=default;exitX=0;exitY=0.75;exitDx=0;exitDy=0;" parent="1" source="196cSCyAFtmHMFl8ig_F-1" edge="1">
          <mxGeometry relative="1" as="geometry">
            <mxPoint x="590" y="740" as="targetPoint" />
            <mxPoint x="660" y="690" as="sourcePoint" />
            <Array as="points">
              <mxPoint x="590" y="620" />
              <mxPoint x="590" y="720" />
            </Array>
          </mxGeometry>
        </mxCell>
        <mxCell id="1RoOa8lt8V1fV5KQ1_AD-68" value="12V" style="edgeLabel;html=1;align=center;verticalAlign=middle;resizable=0;points=[];" parent="1RoOa8lt8V1fV5KQ1_AD-67" vertex="1" connectable="0">
          <mxGeometry relative="1" as="geometry">
            <mxPoint x="30" y="-30" as="offset" />
          </mxGeometry>
        </mxCell>
        <mxCell id="1RoOa8lt8V1fV5KQ1_AD-81" style="edgeStyle=orthogonalEdgeStyle;rounded=1;orthogonalLoop=1;jettySize=auto;html=1;exitX=0.741;exitY=-0.005;exitDx=0;exitDy=0;shape=flexArrow;endSize=3.223333333333333;startSize=6;strokeWidth=1;fillColor=none;endWidth=10.222222222222223;width=7.333333333333333;entryX=0.5;entryY=1;entryDx=0;entryDy=0;exitPerimeter=0;" parent="1" source="1RoOa8lt8V1fV5KQ1_AD-80" target="1RoOa8lt8V1fV5KQ1_AD-29" edge="1">
          <mxGeometry relative="1" as="geometry">
            <mxPoint x="1270" y="670" as="targetPoint" />
          </mxGeometry>
        </mxCell>
        <mxCell id="1RoOa8lt8V1fV5KQ1_AD-83" value="&lt;div&gt;Wasser&lt;/div&gt;" style="edgeLabel;html=1;align=center;verticalAlign=middle;resizable=0;points=[];" parent="1RoOa8lt8V1fV5KQ1_AD-81" vertex="1" connectable="0">
          <mxGeometry relative="1" as="geometry">
            <mxPoint as="offset" />
          </mxGeometry>
        </mxCell>
        <mxCell id="1RoOa8lt8V1fV5KQ1_AD-80" value="&lt;div align=&quot;right&quot;&gt;Wasserbehälter &amp;nbsp;&amp;nbsp; &amp;nbsp;&amp;nbsp; &amp;nbsp; &lt;br&gt;&lt;/div&gt;" style="rounded=0;whiteSpace=wrap;html=1;align=right;" parent="1" vertex="1">
          <mxGeometry x="680" y="720" width="270" height="80" as="geometry" />
        </mxCell>
        <mxCell id="1RoOa8lt8V1fV5KQ1_AD-71" value="Wasserstandssensor" style="rounded=0;whiteSpace=wrap;html=1;" parent="1" vertex="1">
          <mxGeometry x="680" y="735" width="130" height="50" as="geometry" />
        </mxCell>
        <mxCell id="1RoOa8lt8V1fV5KQ1_AD-72" style="edgeStyle=none;rounded=0;orthogonalLoop=1;jettySize=auto;html=1;entryX=1.009;entryY=0.899;entryDx=0;entryDy=0;entryPerimeter=0;" parent="1" source="1RoOa8lt8V1fV5KQ1_AD-71" target="1RoOa8lt8V1fV5KQ1_AD-2" edge="1">
          <mxGeometry relative="1" as="geometry">
            <mxPoint x="550" y="770" as="targetPoint" />
          </mxGeometry>
        </mxCell>
        <mxCell id="1RoOa8lt8V1fV5KQ1_AD-73" value="&lt;div&gt;Analoge Messung /&lt;/div&gt;&lt;div&gt;Digitale komm.&lt;br&gt;&lt;/div&gt;" style="edgeLabel;html=1;align=center;verticalAlign=middle;resizable=0;points=[];" parent="1RoOa8lt8V1fV5KQ1_AD-72" vertex="1" connectable="0">
          <mxGeometry relative="1" as="geometry">
            <mxPoint y="-2" as="offset" />
          </mxGeometry>
        </mxCell>
        <mxCell id="1RoOa8lt8V1fV5KQ1_AD-85" value="&lt;div align=&quot;right&quot;&gt;Pflanzen&amp;nbsp;&amp;nbsp;&amp;nbsp; &amp;nbsp; &amp;nbsp;&amp;nbsp;&amp;nbsp;&amp;nbsp;&amp;nbsp;&amp;nbsp;&amp;nbsp;&amp;nbsp; &lt;br&gt;&lt;/div&gt;" style="rounded=0;whiteSpace=wrap;html=1;align=right;" parent="1" vertex="1">
          <mxGeometry x="680" y="400" width="270" height="80" as="geometry" />
        </mxCell>
        <mxCell id="1RoOa8lt8V1fV5KQ1_AD-89" style="edgeStyle=orthogonalEdgeStyle;rounded=1;orthogonalLoop=1;jettySize=auto;html=1;shape=flexArrow;endSize=3.223333333333333;startSize=6;strokeWidth=1;fillColor=none;endWidth=10.222222222222223;width=7.333333333333333;exitX=0.518;exitY=-0.017;exitDx=0;exitDy=0;entryX=0.75;entryY=1;entryDx=0;entryDy=0;exitPerimeter=0;" parent="1" source="1RoOa8lt8V1fV5KQ1_AD-29" target="1RoOa8lt8V1fV5KQ1_AD-85" edge="1">
          <mxGeometry relative="1" as="geometry">
            <mxPoint x="900" y="630" as="sourcePoint" />
            <mxPoint x="900" y="550" as="targetPoint" />
          </mxGeometry>
        </mxCell>
        <mxCell id="1RoOa8lt8V1fV5KQ1_AD-90" value="&lt;div&gt;Wasser&lt;/div&gt;" style="edgeLabel;html=1;align=center;verticalAlign=middle;resizable=0;points=[];" parent="1RoOa8lt8V1fV5KQ1_AD-89" vertex="1" connectable="0">
          <mxGeometry relative="1" as="geometry">
            <mxPoint x="-1" y="3" as="offset" />
          </mxGeometry>
        </mxCell>
        <mxCell id="1RoOa8lt8V1fV5KQ1_AD-94" value="&lt;h1 align=&quot;left&quot;&gt;Blockschaltbild&lt;br&gt;&lt;/h1&gt;&lt;p align=&quot;left&quot;&gt;für ein System zur Überwachung und automatischen Bewässerung von Pflanzen&lt;br&gt;&lt;/p&gt;" style="text;html=1;strokeColor=none;fillColor=none;spacing=5;spacingTop=-20;whiteSpace=wrap;overflow=hidden;rounded=0;strokeWidth=1;verticalAlign=middle;labelPosition=center;verticalLabelPosition=middle;align=left;" parent="1" vertex="1">
          <mxGeometry x="600" y="235" width="270" height="90" as="geometry" />
        </mxCell>
        <mxCell id="1RoOa8lt8V1fV5KQ1_AD-28" value="Bodenfeuchtigkeits-sensoren" style="rounded=0;whiteSpace=wrap;html=1;" parent="1" vertex="1">
          <mxGeometry x="680" y="415" width="130" height="50" as="geometry" />
        </mxCell>
        <mxCell id="196cSCyAFtmHMFl8ig_F-1" value="&lt;div&gt;Relais&lt;/div&gt;" style="rounded=0;whiteSpace=wrap;html=1;" vertex="1" parent="1">
          <mxGeometry x="650" y="560" width="90" height="80" as="geometry" />
        </mxCell>
        <mxCell id="196cSCyAFtmHMFl8ig_F-3" style="edgeStyle=none;rounded=0;orthogonalLoop=1;jettySize=auto;html=1;exitX=1.005;exitY=0.449;exitDx=0;exitDy=0;exitPerimeter=0;" edge="1" parent="1">
          <mxGeometry relative="1" as="geometry">
            <mxPoint x="740" y="599.79" as="sourcePoint" />
            <mxPoint x="810" y="600" as="targetPoint" />
          </mxGeometry>
        </mxCell>
        <mxCell id="196cSCyAFtmHMFl8ig_F-4" value="12V / 0V" style="edgeLabel;html=1;align=center;verticalAlign=middle;resizable=0;points=[];" vertex="1" connectable="0" parent="196cSCyAFtmHMFl8ig_F-3">
          <mxGeometry x="0.0177" y="1" relative="1" as="geometry">
            <mxPoint x="-5" y="1" as="offset" />
          </mxGeometry>
        </mxCell>
      </root>
    </mxGraphModel>
  </diagram>
</mxfile>
